<svg width="109" height="115" viewBox="0 0 109 115" fill="none" xmlns="http://www.w3.org/2000/svg">
<path d="M11.96 20.632H14.104C14.9147 20.632 15.576 20.5253 16.088 20.312C16.6 20.0773 17.0587 19.7147 17.464 19.224L31.416 2.584C31.9067 1.96533 32.408 1.53866 32.92 1.304C33.4533 1.048 34.1147 0.919998 34.904 0.919998H41.304L24.824 20.376C24.376 20.9307 23.9387 21.4 23.512 21.784C23.1067 22.1467 22.6587 22.4453 22.168 22.68C22.808 22.9147 23.384 23.2453 23.896 23.672C24.408 24.0773 24.9093 24.6213 25.4 25.304L42.488 47H35.96C35.4907 47 35.0853 46.968 34.744 46.904C34.424 46.84 34.136 46.744 33.88 46.616C33.6453 46.488 33.432 46.328 33.24 46.136C33.0693 45.944 32.9093 45.7307 32.76 45.496L18.36 27.896C18.1467 27.6187 17.9333 27.384 17.72 27.192C17.5067 27 17.2507 26.84 16.952 26.712C16.6747 26.584 16.3547 26.4987 15.992 26.456C15.6293 26.392 15.2027 26.36 14.712 26.36H11.96V47H4.472V0.919998H11.96V20.632ZM58.1165 13.848C60.5272 13.848 62.7032 14.2427 64.6445 15.032C66.6072 15.8213 68.2712 16.9413 69.6365 18.392C71.0232 19.8427 72.0898 21.6027 72.8365 23.672C73.5832 25.7413 73.9565 28.0667 73.9565 30.648C73.9565 33.2293 73.5832 35.5547 72.8365 37.624C72.0898 39.6933 71.0232 41.464 69.6365 42.936C68.2712 44.3867 66.6072 45.5067 64.6445 46.296C62.7032 47.0853 60.5272 47.48 58.1165 47.48C55.6845 47.48 53.4872 47.0853 51.5245 46.296C49.5832 45.5067 47.9192 44.3867 46.5325 42.936C45.1458 41.464 44.0792 39.6933 43.3325 37.624C42.5858 35.5547 42.2125 33.2293 42.2125 30.648C42.2125 28.0667 42.5858 25.7413 43.3325 23.672C44.0792 21.6027 45.1458 19.8427 46.5325 18.392C47.9192 16.9413 49.5832 15.8213 51.5245 15.032C53.4872 14.2427 55.6845 13.848 58.1165 13.848ZM58.1165 42.104C61.0605 42.104 63.2472 41.1227 64.6765 39.16C66.1272 37.176 66.8525 34.3493 66.8525 30.68C66.8525 27.0107 66.1272 24.184 64.6765 22.2C63.2472 20.1947 61.0605 19.192 58.1165 19.192C55.1298 19.192 52.9112 20.1947 51.4605 22.2C50.0098 24.184 49.2845 27.0107 49.2845 30.68C49.2845 34.3493 50.0098 37.176 51.4605 39.16C52.9112 41.1227 55.1298 42.104 58.1165 42.104ZM86.999 18.68C87.703 17.9547 88.4283 17.304 89.175 16.728C89.943 16.1307 90.7537 15.6187 91.607 15.192C92.4603 14.7653 93.367 14.4347 94.327 14.2C95.287 13.9653 96.3323 13.848 97.463 13.848C99.255 13.848 100.823 14.1467 102.167 14.744C103.532 15.3413 104.674 16.184 105.591 17.272C106.53 18.36 107.234 19.672 107.703 21.208C108.172 22.7227 108.407 24.3973 108.407 26.232V47H101.559V26.232C101.559 24.0347 101.047 22.328 100.023 21.112C99.0203 19.896 97.4843 19.288 95.415 19.288C93.879 19.288 92.4497 19.64 91.127 20.344C89.8257 21.048 88.599 22.008 87.447 23.224V47H80.567V14.36H84.727C85.6657 14.36 86.263 14.7973 86.519 15.672L86.999 18.68ZM22.68 76.28C22.5093 76.5787 22.3173 76.792 22.104 76.92C21.8907 77.048 21.624 77.112 21.304 77.112C20.9413 77.112 20.5467 77.0053 20.12 76.792C19.6933 76.5573 19.192 76.3013 18.616 76.024C18.04 75.7467 17.3573 75.5013 16.568 75.288C15.8 75.0533 14.8933 74.936 13.848 74.936C12.9947 74.936 12.216 75.0427 11.512 75.256C10.8293 75.448 10.2427 75.736 9.752 76.12C9.28267 76.4827 8.92 76.92 8.664 77.432C8.408 77.9227 8.28 78.456 8.28 79.032C8.28 79.8 8.51467 80.44 8.984 80.952C9.45333 81.464 10.072 81.912 10.84 82.296C11.608 82.6587 12.4827 82.9893 13.464 83.288C14.4453 83.5867 15.448 83.9067 16.472 84.248C17.496 84.5893 18.4987 84.984 19.48 85.432C20.4613 85.88 21.336 86.4347 22.104 87.096C22.872 87.736 23.4907 88.5253 23.96 89.464C24.4293 90.3813 24.664 91.5013 24.664 92.824C24.664 94.36 24.3867 95.7787 23.832 97.08C23.2773 98.3813 22.4667 99.512 21.4 100.472C20.3333 101.432 19 102.179 17.4 102.712C15.8213 103.245 14.008 103.512 11.96 103.512C10.8293 103.512 9.73067 103.405 8.664 103.192C7.61867 103 6.616 102.733 5.656 102.392C4.71733 102.029 3.832 101.603 3 101.112C2.18933 100.621 1.464 100.088 0.824 99.512L2.424 96.888C2.616 96.568 2.85067 96.3227 3.128 96.152C3.42667 95.96 3.78933 95.864 4.216 95.864C4.664 95.864 5.10133 96.0133 5.528 96.312C5.976 96.5893 6.488 96.8987 7.064 97.24C7.66133 97.5813 8.376 97.9013 9.208 98.2C10.04 98.4773 11.0747 98.616 12.312 98.616C13.336 98.616 14.2213 98.4987 14.968 98.264C15.7147 98.008 16.3333 97.6667 16.824 97.24C17.3147 96.8133 17.6773 96.3333 17.912 95.8C18.1467 95.2453 18.264 94.6587 18.264 94.04C18.264 93.208 18.0293 92.5253 17.56 91.992C17.0907 91.4587 16.4613 91 15.672 90.616C14.904 90.232 14.0187 89.8907 13.016 89.592C12.0347 89.2933 11.032 88.9733 10.008 88.632C8.984 88.2907 7.97067 87.896 6.968 87.448C5.98667 87 5.10133 86.4347 4.312 85.752C3.544 85.048 2.92533 84.2053 2.456 83.224C1.98667 82.2213 1.752 81.0053 1.752 79.576C1.752 78.2747 2.008 77.0373 2.52 75.864C3.05333 74.6907 3.82133 73.656 4.824 72.76C5.848 71.864 7.096 71.16 8.568 70.648C10.0613 70.1147 11.7787 69.848 13.72 69.848C15.9173 69.848 17.912 70.2 19.704 70.904C21.496 71.608 23 72.568 24.216 73.784L22.68 76.28ZM62.8095 103H55.9295V75.768H40.0255V94.296C40.0255 95.4693 40.3135 96.3653 40.8895 96.984C41.4655 97.6027 42.2335 97.912 43.1935 97.912C43.7268 97.912 44.1855 97.848 44.5695 97.72C44.9535 97.5707 45.2842 97.4213 45.5615 97.272C45.8388 97.1013 46.0735 96.952 46.2655 96.824C46.4788 96.6747 46.6815 96.6 46.8735 96.6C47.2575 96.6 47.5668 96.8133 47.8015 97.24L49.8495 100.6C48.7828 101.539 47.5242 102.264 46.0735 102.776C44.6228 103.267 43.1295 103.512 41.5935 103.512C38.8842 103.512 36.7935 102.755 35.3215 101.24C33.8708 99.704 33.1455 97.5493 33.1455 94.776V75.768H29.5615C29.1775 75.768 28.8468 75.6507 28.5695 75.416C28.2922 75.16 28.1535 74.7867 28.1535 74.296V71.512L33.4335 70.744L34.9375 61.304C35.0442 60.9413 35.2255 60.6533 35.4815 60.44C35.7375 60.2053 36.0788 60.088 36.5055 60.088H40.0255V70.808H62.8095V103ZM64.2175 60.344C64.2175 60.9627 64.0895 61.5493 63.8335 62.104C63.5988 62.6373 63.2682 63.1173 62.8415 63.544C62.4148 63.9493 61.9135 64.28 61.3375 64.536C60.7828 64.7707 60.1962 64.888 59.5775 64.888C58.9588 64.888 58.3722 64.7707 57.8175 64.536C57.2842 64.28 56.8042 63.9493 56.3775 63.544C55.9722 63.1173 55.6415 62.6373 55.3855 62.104C55.1508 61.5493 55.0335 60.9627 55.0335 60.344C55.0335 59.704 55.1508 59.1067 55.3855 58.552C55.6415 57.976 55.9722 57.4853 56.3775 57.08C56.8042 56.6533 57.2842 56.3227 57.8175 56.088C58.3722 55.832 58.9588 55.704 59.5775 55.704C60.1962 55.704 60.7828 55.832 61.3375 56.088C61.9135 56.3227 62.4148 56.6533 62.8415 57.08C63.2682 57.4853 63.5988 57.976 63.8335 58.552C64.0895 59.1067 64.2175 59.704 64.2175 60.344ZM83.1525 86.392C85.2858 86.392 86.8858 85.848 87.9525 84.76C89.0192 83.672 89.5525 82.2533 89.5525 80.504C89.5525 78.712 89.0192 77.2933 87.9525 76.248C86.8858 75.2027 85.2858 74.68 83.1525 74.68C81.0405 74.68 79.4405 75.2027 78.3525 76.248C77.2858 77.2933 76.7525 78.712 76.7525 80.504C76.7525 81.3573 76.8912 82.1467 77.1685 82.872C77.4458 83.5973 77.8512 84.2267 78.3845 84.76C78.9178 85.272 79.5792 85.6773 80.3685 85.976C81.1792 86.2533 82.1072 86.392 83.1525 86.392ZM92.7205 104.6C92.7205 103.875 92.5072 103.299 92.0805 102.872C91.6752 102.424 91.1205 102.083 90.4165 101.848C89.7125 101.592 88.8912 101.411 87.9525 101.304C87.0138 101.176 86.0112 101.091 84.9445 101.048C83.8992 100.984 82.8218 100.931 81.7125 100.888C80.6245 100.824 79.5685 100.717 78.5445 100.568C77.5205 101.101 76.6778 101.741 76.0165 102.488C75.3765 103.235 75.0565 104.099 75.0565 105.08C75.0565 105.72 75.2165 106.317 75.5365 106.872C75.8778 107.427 76.3898 107.907 77.0725 108.312C77.7765 108.717 78.6618 109.037 79.7285 109.272C80.8165 109.507 82.1178 109.624 83.6325 109.624C86.6618 109.624 88.9338 109.155 90.4485 108.216C91.9632 107.277 92.7205 106.072 92.7205 104.6ZM99.6325 71.544V74.104C99.6325 74.9573 99.1205 75.48 98.0965 75.672L94.8325 76.216C95.3872 77.4533 95.6645 78.8293 95.6645 80.344C95.6645 81.944 95.3445 83.3947 94.7045 84.696C94.0858 85.9973 93.2218 87.1067 92.1125 88.024C91.0032 88.9413 89.6805 89.6453 88.1445 90.136C86.6085 90.6267 84.9445 90.872 83.1525 90.872C82.4698 90.872 81.7978 90.84 81.1365 90.776C80.4965 90.6907 79.8672 90.584 79.2485 90.456C78.6298 90.8187 78.1712 91.2027 77.8725 91.608C77.5738 92.0133 77.4245 92.4293 77.4245 92.856C77.4245 93.56 77.7338 94.0827 78.3525 94.424C78.9712 94.7653 79.7818 95.0107 80.7845 95.16C81.8085 95.3093 82.9712 95.4053 84.2725 95.448C85.5738 95.4907 86.8965 95.5653 88.2405 95.672C89.5845 95.7787 90.9072 95.96 92.2085 96.216C93.5098 96.4507 94.6618 96.856 95.6645 97.432C96.6885 97.9867 97.5098 98.744 98.1285 99.704C98.7472 100.664 99.0565 101.912 99.0565 103.448C99.0565 104.856 98.7045 106.232 98.0005 107.576C97.2965 108.92 96.2725 110.115 94.9285 111.16C93.6058 112.205 91.9845 113.037 90.0645 113.656C88.1445 114.296 85.9578 114.616 83.5045 114.616C81.0725 114.616 78.9498 114.381 77.1365 113.912C75.3445 113.443 73.8405 112.803 72.6245 111.992C71.4298 111.203 70.5338 110.285 69.9365 109.24C69.3605 108.195 69.0725 107.107 69.0725 105.976C69.0725 104.44 69.5525 103.128 70.5125 102.04C71.4938 100.952 72.8165 100.099 74.4805 99.48C73.5845 99.0533 72.8592 98.4667 72.3045 97.72C71.7712 96.9733 71.5045 95.992 71.5045 94.776C71.5045 93.816 71.8565 92.8133 72.5605 91.768C73.2645 90.7227 74.3205 89.8373 75.7285 89.112C74.1072 88.216 72.8272 87.032 71.8885 85.56C70.9498 84.0667 70.4805 82.328 70.4805 80.344C70.4805 78.7227 70.7898 77.2613 71.4085 75.96C72.0485 74.6587 72.9338 73.5493 74.0645 72.632C75.1952 71.7147 76.5285 71.0107 78.0645 70.52C79.6218 70.0293 81.3178 69.784 83.1525 69.784C85.9685 69.784 88.4218 70.3707 90.5125 71.544H99.6325Z" fill="#FECF8D"/>
</svg>
