<svg width="104" height="104" viewBox="0 0 104 104" fill="none" xmlns="http://www.w3.org/2000/svg">
<path d="M52 104C23.2798 104 0 80.7203 0 52C0 23.2798 23.2798 0 52 0C80.7203 0 104 23.2798 104 52C104 80.7203 80.7203 104 52 104ZM39.377 46.813L52 34.19L64.6295 46.8195L71.9745 39.4745L52 19.5L32.032 39.468L39.377 46.813ZM19.5 52L26.845 59.345L34.19 52L26.845 44.655L19.5 52ZM39.377 57.187L32.0222 64.5223L32.032 64.532L52 84.5L71.9745 64.5255V64.5223L64.6295 57.1772L52 69.81L39.377 57.187ZM69.81 52L77.155 59.345L84.5 52L77.155 44.655L69.81 52ZM59.449 51.9935H59.4522L52 44.5445L46.4912 50.05L45.8575 50.6838L44.5542 51.9902L44.5412 52L44.5542 52.0098L51.9967 59.4555L59.4522 52.0033L59.4555 52L59.449 51.9967V51.9935Z" fill="black"/>
</svg>
