<svg width="104" height="104" viewBox="0 0 104 104" fill="none" xmlns="http://www.w3.org/2000/svg">
<path fill-rule="evenodd" clip-rule="evenodd" d="M52 104C23.2798 104 0 80.7203 0 52C0 23.2798 23.2798 0 52 0C80.7203 0 104 23.2798 104 52C104 80.7203 80.7203 104 52 104ZM75.3643 45.565C76.3848 38.753 71.1945 35.0903 64.103 32.6463L66.404 23.4163L60.788 22.0188L58.5455 31.005C57.07 30.6345 55.5555 30.29 54.0443 29.9455L56.303 20.9008L50.687 19.5L48.386 28.7267C47.164 28.4472 45.9615 28.1743 44.798 27.8818L44.8045 27.8525L37.0565 25.9187L35.5615 31.9183C35.5615 31.9183 39.7313 32.8738 39.6435 32.9323C41.9185 33.501 42.328 35.0057 42.2598 36.2018L39.6402 46.7155C39.7962 46.7545 39.9977 46.813 40.2253 46.9007L39.6305 46.7545L35.958 61.4835C35.6785 62.1725 34.9733 63.2092 33.3807 62.816C33.4393 62.8972 29.2988 61.7987 29.2988 61.7987L26.5102 68.2272L33.8228 70.0505C35.1812 70.3918 36.5137 70.7493 37.8235 71.084L35.4998 80.418L41.1125 81.8155L43.4135 72.5855C44.9475 72.9982 46.436 73.3818 47.892 73.7458L45.5975 82.9367L51.2135 84.3343L53.5372 75.0198C63.1182 76.8333 70.3203 76.102 73.3525 67.4375C75.7965 60.463 73.2323 56.4363 68.1915 53.8135C71.864 52.9685 74.6265 50.5538 75.3643 45.565ZM62.5268 63.5635C60.7945 70.5413 49.0457 66.768 45.2367 65.8223L48.3243 53.456C52.1333 54.4082 64.3435 56.29 62.5268 63.5635ZM64.2655 45.4643C62.6828 51.8115 52.9067 48.5843 49.738 47.7945L52.533 36.582C55.7017 37.3717 65.9165 38.844 64.2655 45.4643Z" fill="black"/>
</svg>
