<svg width="104" height="104" viewBox="0 0 104 104" fill="none" xmlns="http://www.w3.org/2000/svg">
<path d="M52 104C23.2798 104 0 80.7203 0 52C0 23.2798 23.2798 0 52 0C80.7203 0 104 23.2798 104 52C104 80.7203 80.7203 104 52 104ZM51.1063 19.695C49.8388 20.189 49.5137 21.9928 50.5017 22.906C51.4345 23.8582 53.2545 23.5235 53.7355 22.2787C54.5643 20.748 52.663 18.8923 51.103 19.6917L51.1063 19.695ZM34.3525 21.4695C33.0362 21.814 32.89 23.855 34.1672 24.3425C35.1325 24.8625 36.5007 24.0533 36.4 22.9548C36.4975 21.9375 35.2982 21.086 34.3525 21.4695ZM68.666 24.3717C69.6735 24.6252 70.421 23.8193 70.655 22.9417C70.4925 21.9115 69.4785 20.9202 68.3767 21.4468C66.9532 21.9083 67.1872 24.1963 68.666 24.3717ZM38.1647 28.483C36.6828 29.2305 36.478 31.4535 37.8235 32.422C39.2145 33.657 41.678 32.5975 41.7593 30.7743C42.003 28.964 39.7443 27.4982 38.1647 28.483ZM62.3123 29.5295C61.4315 31.2715 63.2092 33.267 65.0845 32.9225C66.4982 32.461 67.4765 30.7808 66.6803 29.4255C65.8775 27.6835 63.0175 27.7388 62.3123 29.5295ZM49.088 32.8218C49.0035 34.0762 49.9168 35.1032 50.999 35.6265C51.7075 35.6688 52.4777 35.802 53.1278 35.4445C54.5513 34.827 55.2532 32.968 54.4635 31.616C54.041 30.641 52.9685 30.225 51.9837 30.03C50.4953 30.1372 49.0718 31.2812 49.088 32.8218ZM24.1735 35.0642C22.9125 35.633 22.737 37.5537 23.8485 38.3532C24.895 39.2048 26.7215 38.662 27.0205 37.3262C27.5697 35.7825 25.6198 34.1867 24.1735 35.061V35.0642ZM77.675 35.0578C76.414 35.8182 76.5537 37.8462 77.8927 38.4377C79.1082 39.1527 80.86 38.1063 80.7755 36.7185C80.9218 35.1975 78.9002 34.1217 77.675 35.061V35.0578ZM56.095 37.8235C53.573 38.5775 52.078 41.587 53.105 43.992C54.0085 46.6798 57.5802 47.9277 60.0275 46.4555C62.3837 45.2108 63.193 41.9055 61.672 39.7378C60.5215 37.9632 58.1165 37.1052 56.095 37.8235ZM44.2228 38.0608C41.834 39.1105 40.7355 42.2078 41.9738 44.4893C43.0788 46.8455 46.2962 47.814 48.5777 46.5368C50.856 45.4025 51.8408 42.3442 50.5667 40.1472C49.4845 37.8918 46.4653 37.0175 44.2228 38.0608ZM32.3375 42.055C32.0093 43.7255 33.5238 45.422 35.256 45.2725C36.829 45.2822 37.9762 43.8555 38.0737 42.3963C37.9884 41.6801 37.662 41.0142 37.1482 40.5081C36.6343 40.0019 35.9636 39.6856 35.2463 39.611C33.8715 39.7085 32.5098 40.6348 32.3375 42.055ZM67.444 39.923C65.5363 40.807 65.3965 43.732 67.2327 44.772C69.0007 46.02 71.7308 44.5217 71.6105 42.393C71.6885 40.3845 69.2218 38.9058 67.444 39.923ZM39.3965 47.4207C36.5755 48.0902 34.9245 51.5027 36.283 54.0475C37.4692 56.823 41.5675 57.642 43.7905 55.6075C45.526 54.2198 45.981 51.5905 44.8662 49.699C43.8458 47.8205 41.47 46.8585 39.3932 47.4207H39.3965ZM61.9092 47.411C59.0687 48.1748 57.5673 51.7173 59.059 54.223C60.294 56.6475 63.7618 57.46 66.001 55.913C68.1363 54.5773 68.822 51.4865 67.3855 49.4162C66.3 47.606 63.9275 46.8423 61.9092 47.411ZM26.0292 49.7705C24.3067 50.2515 23.7965 52.7085 25.1778 53.8102C26.3575 54.9867 28.6423 54.3952 29.0875 52.8027C29.8123 51.051 27.8232 49.1043 26.0292 49.7705ZM74.6785 52.312C74.9775 52.9945 75.3382 53.7095 76.0435 54.0605C77.5515 54.8763 79.6803 53.6965 79.5665 51.9578C79.664 50.6383 78.468 49.6632 77.2395 49.4715C76.5244 49.5118 75.8542 49.8329 75.3746 50.3648C74.895 50.8968 74.6448 51.5966 74.6785 52.312ZM17.2055 50.635C16.3118 51.0347 15.925 52.2275 16.575 53.0042C17.3095 54.119 19.3148 53.6055 19.37 52.2698C19.6203 51.09 18.2845 50.1702 17.2055 50.635ZM85.2897 50.6058C84.0222 51.272 84.5195 53.5698 86.0535 53.4333C87.1455 53.5957 88.0815 52.286 87.5713 51.3305C87.269 50.4562 86.0502 50.076 85.2897 50.6058ZM45.2595 57.018C43.134 57.473 41.496 59.4587 41.5025 61.5972C41.4277 63.83 43.1925 65.962 45.4415 66.3195C48.3503 66.989 51.3565 64.4118 51.1712 61.503C51.155 58.6235 48.1 56.2933 45.2563 57.018H45.2595ZM56.511 57.0147C54.8015 57.4307 53.352 58.8185 52.975 60.5247C52.2275 63.0825 54.2035 65.9782 56.8848 66.3195C59.7318 66.885 62.647 64.3923 62.4943 61.5387C62.5397 58.5942 59.3937 56.2217 56.5143 57.0147H56.511ZM34.814 58.786C32.6592 59.0005 31.5217 61.8507 33.0427 63.4075C34.3428 65.0325 37.2808 64.493 37.8722 62.504C38.6815 60.6418 36.8095 58.4512 34.8172 58.786H34.814ZM67.8145 58.8737C65.6662 59.5465 65.3055 62.7737 67.2783 63.8657C69.017 65.0877 71.7145 63.6448 71.643 61.555C71.7795 59.6538 69.5955 58.1425 67.8145 58.8737ZM77.038 67.9738C77.5093 69.2673 79.4755 69.576 80.3433 68.4938C80.9835 67.912 80.8242 67.0085 80.73 66.2513C80.2718 65.7832 79.768 65.2275 79.0498 65.2405C77.6068 65.0033 76.3425 66.6965 77.038 67.9738ZM24.167 65.5947C22.8832 66.2383 22.8377 68.25 24.0793 68.9552C25.2362 69.7352 26.9913 68.952 27.1505 67.5805C27.456 66.0303 25.5157 64.714 24.167 65.598V65.5947ZM50.7943 68.4645C48.6688 69.1373 48.3503 72.3418 50.2645 73.4305C51.9902 74.698 54.7723 73.2355 54.639 71.123C54.808 69.212 52.559 67.7008 50.7943 68.4645ZM38.4637 71.2952C37.4043 71.6852 36.972 72.8358 36.9525 73.866C37.3165 74.8118 38.051 75.8095 39.1787 75.8323C40.5438 76.0338 41.8893 74.8768 41.8438 73.5182C41.9803 71.8607 39.9653 70.5185 38.4637 71.2952ZM63.4432 71.3213C61.9352 72.0785 61.7663 74.3665 63.1573 75.3187C64.597 76.5342 67.08 75.3512 67.041 73.4987C67.1872 71.7308 64.9902 70.3787 63.4432 71.3213ZM67.7885 81.8838C68.4938 83.0732 70.551 82.6507 70.6842 81.2663C70.8727 80.2393 69.9238 79.5762 69.0267 79.3975C67.9088 79.6315 67.0995 80.8633 67.7885 81.887V81.8838ZM33.3027 80.9965C33.4002 82.1633 34.6938 83.174 35.8053 82.4362C37.0435 81.7862 36.6242 79.69 35.2105 79.5925C34.2388 79.3812 33.5757 80.1873 33.3027 80.9965ZM49.9427 81.9292C49.4455 83.1415 50.635 84.6072 51.9512 84.4545C52.6597 84.4707 53.209 83.9735 53.6348 83.4795C53.716 83.1448 53.8005 82.8067 53.8948 82.472C53.7192 81.8285 53.5177 81.0745 52.8287 80.782C51.7887 80.145 50.2125 80.73 49.9395 81.9292H49.9427Z" fill="black"/>
</svg>
