<svg width="104" height="104" viewBox="0 0 104 104" fill="none" xmlns="http://www.w3.org/2000/svg">
<path fill-rule="evenodd" clip-rule="evenodd" d="M52 104C23.2798 104 0 80.7203 0 52C0 23.2798 23.2798 0 52 0C80.7203 0 104 23.2798 104 52C104 80.7203 80.7203 104 52 104ZM34.0665 54.912V78H55.3507C59.2832 78 62.686 77.3175 65.5622 75.9622C68.4385 74.6005 70.785 72.7448 72.6082 70.3885C74.4282 68.0355 75.7835 65.2795 76.6707 62.1237C77.558 58.968 78 55.5913 78 52C78.0223 48.5803 77.5739 45.1737 76.6675 41.8763C75.7835 38.7238 74.4283 35.9645 72.605 33.6115C70.785 31.2552 68.4385 29.3995 65.5622 28.0378C62.686 26.6825 59.28 26 55.3475 26H34.0633V47.4825H29.25V54.912H34.0665ZM43.056 47.4857V33.4295H51.8993C55.3995 33.4295 58.2628 33.9007 60.4923 34.8497C62.7218 35.7955 64.4703 37.1052 65.741 38.7822C67.0407 40.5262 67.9255 42.5436 68.328 44.681C68.783 46.9398 69.0105 49.3773 69.0105 52C69.0262 54.4563 68.7976 56.908 68.328 59.319C67.873 61.5778 67.0117 63.544 65.741 65.2178C64.4703 66.8947 62.7185 68.2045 60.4923 69.1503C58.2628 70.0993 55.3995 70.5705 51.8993 70.5705H43.056V54.912H57.0765V47.4857H43.056Z" fill="black"/>
</svg>
