<svg width="104" height="104" viewBox="0 0 104 104" fill="none" xmlns="http://www.w3.org/2000/svg">
<path fill-rule="evenodd" clip-rule="evenodd" d="M52 104C23.2798 104 0 80.7203 0 52C0 23.2798 23.2798 0 52 0C80.7203 0 104 23.2798 104 52C104 80.7203 80.7203 104 52 104ZM77.9805 52.7118L53.6185 13L29.25 52.715L53.6185 66.8623L77.9805 52.7118ZM78 57.252L53.6185 71.3927L29.25 57.2553L53.6185 90.9837L78 57.252Z" fill="black"/>
<path d="M53.6187 13V41.8275L77.9839 52.715L53.6187 13ZM53.6187 71.396V90.9837L78.0002 57.252L53.6187 71.396Z" fill="black" fill-opacity="0.298"/>
<path d="M53.6187 66.8622L77.9839 52.715L53.6187 41.834V66.8622Z" fill="black" fill-opacity="0.801"/>
<path d="M29.25 52.715L53.6185 66.8622V41.834L29.25 52.715Z" fill="black" fill-opacity="0.298"/>
</svg>
