<svg width="104" height="104" viewBox="0 0 104 104" fill="none" xmlns="http://www.w3.org/2000/svg">
<path d="M52 0C80.7203 0 104 23.2798 104 52C104 80.7203 80.7203 104 52 104C23.2798 104 0 80.7203 0 52C0 23.2798 23.2798 0 52 0ZM50.1052 74.7598C49.699 76.7292 50.9178 78.6988 52.9425 79.105C53.4145 79.2072 53.9022 79.2145 54.3771 79.1267C54.852 79.0388 55.3047 78.8575 55.709 78.5932C56.1132 78.3289 56.461 77.987 56.732 77.5872C57.003 77.1875 57.1919 76.7379 57.2878 76.2645C57.6908 74.2397 56.4753 72.3255 54.4473 71.9225C53.9757 71.8208 53.4886 71.8137 53.0142 71.9016C52.5399 71.9894 52.0877 72.1706 51.6838 72.4345C51.2799 72.6984 50.9325 73.0398 50.6615 73.4389C50.3905 73.8381 50.2015 74.287 50.1052 74.7598ZM52.884 21.5312C40.8362 21.5312 30.992 31.3202 30.992 43.4232C30.992 45.8575 31.395 48.2332 32.149 50.5473C32.4159 51.3112 32.9721 51.9398 33.6978 52.2979C34.4236 52.6559 35.2609 52.7146 36.0295 52.4615C36.7929 52.1939 37.4207 51.6375 37.7781 50.9118C38.1355 50.1862 38.1938 49.3492 37.9405 48.581C37.3051 46.7769 37.0108 44.8703 37.0728 42.9585C37.3035 34.7945 43.9075 28.0735 52.0748 27.6705C54.2141 27.5581 56.3539 27.8821 58.3641 28.6227C60.3743 29.3633 62.2129 30.5051 63.7679 31.9787C65.3229 33.4522 66.5619 35.2267 67.4095 37.1942C68.2572 39.1616 68.6957 41.281 68.6985 43.4232C68.6937 47.4521 67.1501 51.327 64.3833 54.2557C61.6166 57.1844 57.8356 58.9456 53.8135 59.1792C53.8135 59.1792 50.7422 59.3515 49.2375 59.5855C48.4835 59.6992 47.905 59.8162 47.4987 59.8748C47.3232 59.9333 47.151 59.7578 47.2062 59.5823L47.7295 57.0375L50.5667 43.9465C50.7321 43.1638 50.5818 42.3474 50.1485 41.6749C49.7152 41.0024 49.0339 40.5281 48.2528 40.3552C47.4696 40.19 46.6528 40.3407 45.9802 40.7747C45.3076 41.2087 44.8336 41.8908 44.6615 42.6725C44.6615 42.6725 37.8268 74.529 37.7682 74.8767C37.603 75.66 37.7537 76.4767 38.1877 77.1493C38.6217 77.8219 39.3038 78.2958 40.0855 78.468C40.8687 78.6333 41.6855 78.4825 42.3581 78.0485C43.0307 77.6145 43.5046 76.9325 43.6768 76.1507C43.732 75.803 44.6615 71.5748 44.6615 71.5748C44.9905 70.0245 45.7902 68.6137 46.9513 67.5352C48.1124 66.4567 49.5783 65.7631 51.1485 65.5493C52.2845 65.4248 53.4235 65.3284 54.5642 65.26C60.0632 64.8314 65.1984 62.3454 68.9454 58.2979C72.6923 54.2503 74.7755 48.9389 74.7793 43.4232C74.7793 31.3202 64.9317 21.5312 52.884 21.5312Z" fill="black"/>
</svg>
