<svg width="104" height="104" viewBox="0 0 104 104" fill="none" xmlns="http://www.w3.org/2000/svg">
<path d="M52 0C80.7203 0 104 23.2798 104 52C104 80.7203 80.7203 104 52 104C23.2798 104 0 80.7203 0 52C0 23.2798 23.2798 0 52 0ZM80.2945 63.4303H33.605C33.1002 63.4297 32.6156 63.6282 32.2563 63.9827L23.0327 73.1315C22.8988 73.2638 22.8075 73.433 22.7703 73.6175C22.7331 73.8021 22.7519 73.9935 22.8241 74.1673C22.8964 74.3411 23.0188 74.4894 23.1758 74.5932C23.3329 74.697 23.5173 74.7516 23.7055 74.75H70.395C70.8998 74.7505 71.3844 74.552 71.7438 74.1975L80.9672 65.0455C81.1 64.913 81.1904 64.7441 81.2269 64.5601C81.2634 64.3762 81.2444 64.1855 81.1723 64.0124C81.1002 63.8392 80.9783 63.6914 80.8219 63.5878C80.6656 63.4841 80.482 63.4293 80.2945 63.4303ZM70.395 46.2313H23.7055L23.4845 46.254C23.3196 46.2919 23.168 46.3733 23.0453 46.4897C22.9226 46.6061 22.8333 46.7533 22.7869 46.9159C22.7404 47.0786 22.7384 47.2507 22.7811 47.4144C22.8238 47.578 22.9095 47.7273 23.0295 47.8465L32.2595 56.9985L32.487 57.1935C32.812 57.421 33.202 57.551 33.605 57.551H80.2945L80.5155 57.5283C80.6804 57.4904 80.832 57.409 80.9547 57.2926C81.0774 57.1762 81.1667 57.029 81.2131 56.8663C81.2596 56.7037 81.2616 56.5316 81.2189 56.3679C81.1763 56.2042 81.0905 56.055 80.9705 55.9358L71.7405 46.7838L71.513 46.5887C71.1869 46.3556 70.7959 46.2306 70.395 46.2313ZM80.2945 29.25H33.605C33.1002 29.2495 32.6156 29.448 32.2563 29.8025L23.0327 38.9545C22.9 39.087 22.8096 39.2559 22.7731 39.4399C22.7366 39.6238 22.7556 39.8145 22.8277 39.9876C22.8998 40.1608 23.0217 40.3086 23.1781 40.4122C23.3344 40.5159 23.518 40.5707 23.7055 40.5697H70.395C70.8998 40.5703 71.3844 40.3718 71.7438 40.0173L80.9672 30.8685C81.1012 30.7362 81.1925 30.567 81.2297 30.3825C81.2669 30.1979 81.2481 30.0065 81.1759 29.8327C81.1036 29.6589 80.9812 29.5106 80.8242 29.4068C80.6671 29.303 80.4827 29.2484 80.2945 29.25Z" fill="black"/>
</svg>
