<svg width="104" height="104" viewBox="0 0 104 104" fill="none" xmlns="http://www.w3.org/2000/svg">
<path fill-rule="evenodd" clip-rule="evenodd" d="M52 104C23.2798 104 0 80.7203 0 52C0 23.2798 23.2798 0 52 0C80.7203 0 104 23.2798 104 52C104 80.7203 80.7203 104 52 104ZM58.2465 44.8273V37.1377H75.842V25.4117H27.9338V37.1377H45.5293V44.824C31.2292 45.4805 20.475 48.3145 20.475 51.7075C20.475 55.1005 31.2292 57.9313 45.5293 58.591V83.2325H58.2465V58.5845C72.5238 57.928 83.252 55.0972 83.252 51.7075C83.252 48.3177 72.5238 45.487 58.2465 44.8273ZM58.2465 56.4947V56.4883C57.889 56.5143 56.0462 56.6248 51.935 56.6248C48.6525 56.6248 46.3418 56.5273 45.5293 56.4883V56.498C32.8932 55.9423 23.4618 53.742 23.4618 51.1095C23.4618 48.4802 32.8932 46.28 45.5293 45.7145V54.3075C46.3547 54.366 48.7207 54.5057 51.9902 54.5057C55.913 54.5057 57.8793 54.3433 58.2465 54.3108V45.721C70.8565 46.2832 80.2653 48.4835 80.2653 51.1095C80.2653 53.742 70.8565 55.9357 58.2465 56.4947Z" fill="black"/>
</svg>
