<svg width="104" height="104" viewBox="0 0 104 104" fill="none" xmlns="http://www.w3.org/2000/svg">
<path d="M52 0C80.7203 0 104 23.2798 104 52C104 80.7203 80.7203 104 52 104C23.2798 104 0 80.7203 0 52C0 23.2798 23.2798 0 52 0ZM62.894 18.07C62.101 17.68 61.308 18.07 61.113 18.8598C60.9148 19.058 60.9147 19.2563 60.9147 19.6495V22.412L60.9473 22.75C61.1169 23.4186 61.5279 24.0009 62.101 24.3847C77.5515 29.9097 85.475 47.0698 79.729 62.257C76.7585 70.5445 70.2227 76.8528 62.101 79.8135C61.308 80.2067 60.9147 80.7983 60.9147 81.7863V84.5488L60.931 84.8348C60.9619 85.1468 61.0923 85.4407 61.303 85.673C61.5137 85.9054 61.7934 86.0638 62.101 86.125C62.2992 86.125 62.6957 86.125 62.894 85.93C67.3516 84.5379 71.4898 82.2779 75.0704 79.2799C78.6509 76.282 81.6031 72.6054 83.7569 68.4618C85.9107 64.3182 87.2236 59.7896 87.62 55.1365C88.0163 50.4834 87.4884 45.7979 86.0665 41.3497C82.5045 30.1047 73.788 21.6222 62.894 18.0732V18.07ZM41.899 17.875C41.7008 17.875 41.3042 17.875 41.106 18.07C36.6484 19.4621 32.5102 21.7221 28.9296 24.7201C25.3491 27.718 22.3969 31.3946 20.2431 35.5382C18.0893 39.6818 16.7764 44.2104 16.38 48.8635C15.9836 53.5166 16.5116 58.2021 17.9335 62.6503C21.4955 73.7002 30.0137 82.1827 41.106 85.7318C41.899 86.125 42.692 85.7318 42.887 84.942C43.0853 84.747 43.0853 84.5455 43.0853 84.1523V81.3897L43.0527 81.1297C42.9162 80.5805 42.406 79.9532 41.899 79.6152C26.4485 74.0902 18.525 56.9302 24.271 41.743C27.2415 33.4555 33.7773 27.1472 41.899 24.1865C42.692 23.7932 43.0853 23.2017 43.0853 22.2138V19.4513L43.069 19.1652C43.0381 18.8532 42.9077 18.5593 42.697 18.327C42.4864 18.0946 42.2066 17.9362 41.899 17.875ZM53.3877 28.132H50.414L50.128 28.158C49.478 28.288 49.0035 28.847 48.828 29.7115V34.2485L48.1553 34.3525C42.6043 35.3405 39.1267 39.1722 39.1267 43.914C39.1267 50.4205 43.0853 52.9848 51.4053 53.9728C56.953 54.9575 58.734 56.1437 58.734 59.2995C58.734 62.452 55.9618 64.623 52.1983 64.623C47.047 64.623 45.266 62.4552 44.6712 59.4945C44.4762 58.708 43.8783 58.3115 43.2835 58.3115H39.9165L39.6598 58.3342C39.3393 58.386 39.0484 58.5522 38.8411 58.802C38.6337 59.0518 38.5239 59.3682 38.532 59.6928V59.8877L38.6393 60.4728C39.5817 65.1008 42.7537 68.4125 49.0295 69.3582V74.0935L49.0555 74.3795C49.1855 75.023 49.7477 75.4975 50.6155 75.6698H53.586L53.872 75.6437C54.522 75.5137 54.9965 74.9548 55.172 74.0935V69.355L55.8448 69.225C61.412 68.0485 65.0748 64.0217 65.0748 58.8997C65.0748 51.9967 60.9148 49.6307 52.5948 48.6427C46.6505 47.853 45.4643 46.2767 45.4643 43.5143C45.4643 40.7518 47.4468 38.9772 51.4053 38.9772C54.9705 38.9772 56.953 40.1602 57.941 43.121C58.0439 43.4073 58.2322 43.6552 58.4803 43.8312C58.7284 44.0073 59.0245 44.1031 59.3287 44.1058H62.4975L62.7542 44.0863C63.0759 44.0351 63.368 43.8688 63.576 43.6182C63.7841 43.3677 63.894 43.0501 63.8853 42.7245V42.5295L63.765 41.9673C63.277 39.9471 62.1645 38.1323 60.5855 36.7809C59.0066 35.4295 57.0418 34.6105 54.9705 34.4403V29.7115L54.9445 29.4255C54.8145 28.7787 54.2523 28.3043 53.3845 28.132H53.3877Z" fill="black"/>
</svg>
