<svg width="104" height="104" viewBox="0 0 104 104" fill="none" xmlns="http://www.w3.org/2000/svg">
<path d="M52 104C23.2798 104 0 80.7203 0 52C0 23.2798 23.2798 0 52 0C80.7203 0 104 23.2798 104 52C104 80.7203 80.7203 104 52 104ZM74.9775 26L60.112 40.6997C57.9491 42.8345 55.0325 44.0315 51.9935 44.0315C48.9545 44.0315 46.0379 42.8345 43.875 40.6997L29.0225 26H19.6138L39.1787 45.3602C42.5966 48.7276 47.202 50.6153 52 50.6153C56.798 50.6153 61.4034 48.7276 64.8213 45.3602L84.3733 26H74.9807H74.9775ZM28.9088 79.8298L43.888 65C46.0509 62.8652 48.9675 61.6682 52.0065 61.6682C55.0455 61.6682 57.9621 62.8652 60.125 65L75.0912 79.8298H84.5L64.8213 60.3525C61.4034 56.9851 56.798 55.0975 52 55.0975C47.202 55.0975 42.5966 56.9851 39.1787 60.3525L19.5 79.8265H28.9088V79.8298Z" fill="black"/>
</svg>
