<svg width="21" height="21" viewBox="0 0 21 21" fill="none" xmlns="http://www.w3.org/2000/svg">
<path d="M0 0.7C0 0.514348 0.0737521 0.336301 0.205032 0.205025C0.336311 0.0737498 0.514364 0 0.700022 0H2.80009C2.95623 4.31361e-05 3.10789 0.052291 3.23092 0.148435C3.35396 0.244578 3.44132 0.379097 3.47911 0.5306L4.04613 2.8H20.3006C20.4034 2.8001 20.5049 2.82282 20.5979 2.86657C20.6909 2.91032 20.7732 2.97401 20.8388 3.05313C20.9044 3.13224 20.9518 3.22483 20.9776 3.32432C21.0034 3.42382 21.007 3.52777 20.988 3.6288L18.888 14.8288C18.858 14.9892 18.7728 15.1341 18.6473 15.2384C18.5218 15.3427 18.3638 15.3998 18.2006 15.4H5.60017C5.43697 15.3998 5.27895 15.3427 5.15343 15.2384C5.02791 15.1341 4.94278 14.9892 4.91275 14.8288L2.81409 3.6498L2.25407 1.4H0.700022C0.514364 1.4 0.336311 1.32625 0.205032 1.19497C0.0737521 1.0637 0 0.885652 0 0.7ZM4.34293 4.2L6.18119 14H17.6195L19.4578 4.2H4.34293ZM7.00022 15.4C6.25759 15.4 5.54537 15.695 5.02026 16.2201C4.49514 16.7452 4.20013 17.4574 4.20013 18.2C4.20013 18.9426 4.49514 19.6548 5.02026 20.1799C5.54537 20.705 6.25759 21 7.00022 21C7.74285 21 8.45506 20.705 8.98018 20.1799C9.50529 19.6548 9.8003 18.9426 9.8003 18.2C9.8003 17.4574 9.50529 16.7452 8.98018 16.2201C8.45506 15.695 7.74285 15.4 7.00022 15.4ZM16.8005 15.4C16.0579 15.4 15.3457 15.695 14.8206 16.2201C14.2954 16.7452 14.0004 17.4574 14.0004 18.2C14.0004 18.9426 14.2954 19.6548 14.8206 20.1799C15.3457 20.705 16.0579 21 16.8005 21C17.5431 21 18.2554 20.705 18.7805 20.1799C19.3056 19.6548 19.6006 18.9426 19.6006 18.2C19.6006 17.4574 19.3056 16.7452 18.7805 16.2201C18.2554 15.695 17.5431 15.4 16.8005 15.4ZM7.00022 16.8C7.37153 16.8 7.72764 16.9475 7.9902 17.2101C8.25276 17.4726 8.40026 17.8287 8.40026 18.2C8.40026 18.5713 8.25276 18.9274 7.9902 19.1899C7.72764 19.4525 7.37153 19.6 7.00022 19.6C6.6289 19.6 6.2728 19.4525 6.01024 19.1899C5.74768 18.9274 5.60017 18.5713 5.60017 18.2C5.60017 17.8287 5.74768 17.4726 6.01024 17.2101C6.2728 16.9475 6.6289 16.8 7.00022 16.8ZM16.8005 16.8C17.1718 16.8 17.5279 16.9475 17.7905 17.2101C18.0531 17.4726 18.2006 17.8287 18.2006 18.2C18.2006 18.5713 18.0531 18.9274 17.7905 19.1899C17.5279 19.4525 17.1718 19.6 16.8005 19.6C16.4292 19.6 16.0731 19.4525 15.8105 19.1899C15.548 18.9274 15.4005 18.5713 15.4005 18.2C15.4005 17.8287 15.548 17.4726 15.8105 17.2101C16.0731 16.9475 16.4292 16.8 16.8005 16.8V16.8Z" fill="#FECF8D"/>
</svg>
